Dangerous.Invitation[1998]DVDRip-RDX

-------------------------------------------------------------------------
Movie Info
-------------------------------------------------------------------------
IMDb Link: http://www.imdb.com/title/tt0162924/
IMDb User Rating: 5.4/10 (98 votes) 
Director: Leland Price
Writer: Leland Zaitz
Genre: Thriller
Plot: A wealthy yuppy couple find that their lives are being invaded by 
another, intrusive couple who are out to rip them off and terrorize them.


Spoken Language: Unknown - But hey, it's porn - do you care? ;-)
Subtitles: None


-------------------------------------------------------------------------
Media Info
-------------------------------------------------------------------------
General
Complete name                    : Dangerous.Invitation[1998].mp4
Format                           : MPEG-4
Format profile                   : Base Media / Version 2
Codec ID                         : mp42
File size                        : 345 MiB
Duration                         : 1h 34mn
Overall bit rate                 : 510 Kbps
Encoded date                     : UTC 2009-04-29 02:01:20
Tagged date                      : UTC 2009-04-29 02:59:25

Video
ID                               : 1
Format                           : AVC
Format/Info                      : Advanced Video Codec
Format profile                   : Main@L2.1
Format settings, CABAC           : Yes
Format settings, ReFrames        : 2 frames
Codec ID                         : avc1
Codec ID/Info                    : Advanced Video Coding
Duration                         : 1h 34mn
Bit rate mode                    : Variable
Bit rate                         : 440 Kbps
Maximum bit rate                 : 1 797 Kbps
Width                            : 464 pixels
Height                           : 312 pixels
Display aspect ratio             : 1.487
Frame rate mode                  : Constant
Frame rate                       : 25.000 fps
Standard                         : PAL
Resolution                       : 24 bits
Colorimetry                      : 4:2:0
Scan type                        : Progressive
Bits/(Pixel*Frame)               : 0.122
Stream size                      : 298 MiB (86%)
Encoded date                     : UTC 2009-04-29 02:01:20
Tagged date                      : UTC 2009-04-29 02:59:25

Audio
ID                               : 2
Format                           : AAC
Format/Info                      : Advanced Audio Codec
Format version                   : Version 4
Format profile                   : LC
Format settings, SBR             : Yes
Format settings, PS              : No
Codec ID                         : 40
Duration                         : 1h 34mn
Bit rate mode                    : Variable
Bit rate                         : 66.15 Kbps
Maximum bit rate                 : 122 Kbps
Channel(s)                       : 2 channels
Channel positions                : L R
Sampling rate                    : 48.0 KHz
Resolution                       : 16 bits
Stream size                      : 44.2 MiB (13%)
Encoded date                     : UTC 2009-04-29 02:01:20
Tagged date                      : UTC 2009-04-29 02:59:25


-----------------------------------------------------------------------------------
No spam, No Virus, No fakes, No crap.
Only quality torrents from ..RDX..
-----------------------------------------------------------------------------------